<svg xmlns="http://www.w3.org/2000/svg" width="40" height="36"><path fill="none" d="M6.017 14.109H34.51v9.987H6.017z"/><text transform="translate(9.452 16.74)"><tspan x="0" y="0" fill="#211915" font-family="'TrajanPro-Bold'" font-size="4.112">Cholitas </tspan><tspan x="4.553" y="4.936" fill="#211915" font-family="'TrajanPro-Bold'" font-size="4.112">Deco</tspan></text><g clip-rule="evenodd" fill="none" stroke="#211915" stroke-width=".076" stroke-miterlimit="10" opacity=".8"><path d="M37.008 16.011c.059-.36.027-.717-.029-1.072-.013-.078-.05-.203-.197-.123.277 1.224.224 2.428-.226 3.595-.367.137-.769.139-1.152.208-.476.085-.98.253-1.175.806-.029.082-.095.119-.171.146M10.015 8.623c-.513-.195-1.018-.424-1.585-.388-.488.03-.918.192-1.245.582-.339.407-.704.788-.958 1.265-.202.377-.337.775-.481 1.174-.043.12-.052.258-.191.357-.098-.3.126-.519.167-.772m2.317 13.632c-.363.444-.799.84-.928 1.438-.049.229-.172.45-.022.684-.113.376.153.641.304.921.176.325.372.646.616.938.383.456.857.804 1.307 1.185-.132.082-.132.082-.277-.02m24.629-5.659c-.379.738-.987 1.134-1.805 1.231.26-.651.847-.883 1.416-1.129.081-.034.163-.051.217-.127m2.562-4.412c.004.122-.083.211-.126.314-.285.685-.342 1.376-.066 2.073.098.245.229.479.37.703.047.075.054.153.09.225m-9.486 4.878c.104-.026.117-.144.195-.195-.115-.325-.295-.5-.512-.459-.221.04-.312.214-.343.426-.065.003-.131.032-.195-.016-.162-.121-.326-.04-.403.081a.41.41 0 00.018.453c.091.124.208.229.313.344m4.535-24.458c-.252-.012-.476.106-.704.178-.598.187-1.168.136-1.736-.1-.049-.02-.082-.05-.119-.078m-.854 28.895c-.915.185-1.811.479-2.756.488-.032 0-.068.009-.097-.002-.585-.206-1.134-.45-1.421-1.067-.128-.273-.294-.528-.408-.809m11.534-7.144c-.141.708-.015 1.35.434 1.931.115.152.221.339.176.557M23.67 1.819c-.017-.17-.166-.09-.246-.113-.248-.072-.503-.017-.795-.042.094.178.201.125.285.131.716.039 1.429.102 2.097.393.344.149.692.29 1.021.469.19.104.336.053.49-.032.382-.208.771-.35 1.222-.323.357.021.702.101 1.046.186.104.025.195.011.294.017M9.186 7.403c.349.064.616.331.953.407.408.093.831.242 1.243-.015a.22.22 0 00.107-.116c-.248-.037-.439-.176-.619-.328a1.31 1.31 0 00-1.491-.123c-.1.06-.214.115-.34.052"/><path d="M35.887 20.206c.13.438.265.876.388 1.316.08.285.089.583.099.877.004.084.014.172-.048.244m.34-3.925c-.085.848.043 1.641.611 2.315.007.008.031.001.048.001M28.864 2.576a2.482 2.482 0 01-1.926.238c-.138-.038-.304.051-.415-.092M8.064 5.843c.139.62.124 1.219-.219 1.779-.105.172-.111.392-.31.523-.081.055-.083.23-.032.356m27.579-1c-.199.008-.35-.131-.535-.179-.413-.108-.813-.14-1.222.008-.184.065-.373.114-.561.171M9.819 4.697c-.115.043-.078.124-.079.22-.006.406.066.82-.067 1.219-.13.384-.277.76-.61 1.024m12.242-4.073c.052.094.008.195.038.341-.322 0-.632.01-.94-.002-.356-.016-.699.077-1.049.105-.112.01-.215.029-.317-.029l-.78-.439m5.315 30.114c-.385.005-.766-.076-1.146-.086-.697-.02-1.367.112-1.901.624-.237.226-.472.454-.708.682m-5.023-29.7c-.033-.024-.062-.06-.098-.072-.629-.21-1.246-.181-1.824.153-.142.082-.285.06-.419.114m8.876-2.073c.177.127.278-.012.362-.125.104-.14-.078-.193-.121-.289-.034-.072-.113-.094-.192-.1.073-.379-.193-.586-.464-.514a.408.408 0 00-.307.346c-.021.129-.063.178-.179.223-.209.081-.405.197-.613.284a.594.594 0 00-.243.174M5.601 20.668c-.047-.079-.025-.154.026-.219.25-.315.283-.715.4-1.077.072-.225-.011-.489-.075-.768-.373.507-.672.996-.595 1.625.025.212.048.423.074.634 0 .001.017.003.023-.001.009-.005.017-.016.024-.022m29.482 1.511c.18.376.366.755.407 1.172.035.358.004.722-.188 1.048M5.406 15.23c.138.04.249.116.317.245.042.079.05.17-.002.242-.119.163-.252.311-.461.369a.412.412 0 01-.459-.199.331.331 0 01.072-.41.936.936 0 01.509-.247M31.619 5.208c-.062-.155-.224-.16-.343-.188-.544-.127-1.083-.053-1.606.119-.225.073-.227.145-.151.363.145.418.343.827.273 1.292-.008.054.008.111-.051.146m-3.316-3.853c.303.398.383.86.362 1.341-.015.334-.043.667.004 1m2.512-.146c-.114.178.031.379-.049.562a.877.877 0 00-.052.512c.067.41.093.835.514 1.075.02.012.018.063.025.095m-15.288-6.17c-.468.523-.672 1.123-.568 1.831.04.269.013.534-.282.712-.346.209-.578.573-.955.75m20.605 21.189c.17.358.433.672.512 1.073.063.324 0 .65-.003.976 0 .016-.045.031-.069.049m1.047-5.902c-.04-.017-.085-.053-.121-.046-.521.093-1.084.024-1.537.387-.144.114-.336.187-.341.415M13.087 6.354c-.041.008-.083-.015-.123.024-.25.24-.549.263-.877.226-.307-.035-.594-.09-.857-.267-.104-.071-.255-.072-.386-.104M6.918 20.84c-.042.142.096.245.076.391-.064.465-.202.894-.565 1.217-.108.098-.24.181-.287.32-.048.146-.149.116-.249.12m30.481-4.243c-.24.266-.511.494-.854.606-.331.108-.678.149-1.023.198-.089.012-.179.017-.268.024M13.136 30.13c.17.122.315.035.435-.076.115-.107.174-.232.11-.415a.999.999 0 00-.279-.409c-.153-.14-.318-.047-.468.163-.145.203.026.347.037.518.005.067.076.13.116.195m10.656 3.413c-.202-.087-.344.081-.511.127-.655.18-1.118.601-1.442 1.188-.029.052-.096.083-.145.123M33.277 6.526c-.531.292-1.09.304-1.657.142-.122-.035-.232-.108-.366-.069m-19.63-2.975c-.359.324-.691.671-.777 1.171a8.439 8.439 0 00-.096.927c-.004.087.06.178.092.268m8.34-4.488c.146.033.257-.044.365-.123.104-.075.1-.2.067-.289a.379.379 0 00-.334-.245c-.201-.018-.309.071-.366.292-.056.214-.018.282.22.39.007.002.016 0 .024 0l-.024.048m-2.902 29.408c.199.468.498.845.976 1.045.253.106.519.182.779.271M31.839 8.647c.023-.541-.008-1.067-.415-1.487-.148-.152-.253-.346-.439-.463M18.598 30.885c-.008.09.088.127.12.117.258-.088.407.104.558.23.295.249.537.548.615.945.04.199.25.333.215.563.514.061.99.306 1.515.29M2.602 17.718c.206.244.346.533.581.76.234.228.504.379.811.451.182.043.332.193.535.154M17.72 32.421c-.029-.046-.072-.051-.122-.048-.45.015-.895-.037-1.34-.079-.124-.012-.214.012-.266.105-.08.148-.23.231-.317.365-.314.478-.797.652-1.321.747-.062.011-.118.112-.194.031"/><path d="M13.087 2.38c.057.723.106 1.441-.411 2.052-.095.111-.069.292-.174.411m-.829 21.58l.197-.057c.057.346.197.664.287 1.002.08.298.156.628.37.884m7.217 4.267c-.145.114-.322.073-.461.04-.379-.091-.773-.053-1.148-.16-.015-.005-.037-.008-.047 0-.306.226-.695.149-1.026.29-.429.18-.752.481-1.053.826-.131.15-.233.364-.483.37M2.968 15.621c.041.065.068.146.124.192.46.384.727.86.755 1.465.019.41.247.742.41 1.1.036.079.118.162.053.266M15.721 3.039c-.448.661-1.092.896-1.804.658m18.629 3.902c-.053.748.42 1.405 1.122 1.56m-6.95 19.435a.788.788 0 01.336.154c.45.331.993.43 1.499.607.222.077.456.243.721.155.008-.018.033-.047.026-.063-.148-.371-.149-.782-.314-1.147-.095-.21-.104-.444-.189-.66-.124-.31-.217-.632-.322-.949m6.094-13.849c-.139.242-.179.52-.262.782-.124.383-.374.701-.519 1.071M4.772 17.304c.287.415.416.851.196 1.342-.071.159-.13.324-.196.487m-.805 2.266c.125.538.475.877.949 1.126.298.156.6.291.928.362m28.8-10.656c-.261.157-.469.378-.71.56-.151.114-.155.276-.199.438a8.75 8.75 0 01-.406 1.198c-.073.167-.128.343-.19.516.097.066.198.139.334.093M14.55 1.234c-.113.189-.122.405-.092.608.071.5-.066.952-.276 1.39a.562.562 0 01-.266.27M3.187 19.474c.423.147.875.211 1.249.506.262.205.463.451.65.716.03.042.046.075.101.07M27.692 3.868c-.049.052-.017.082.023.123.134.135.265.272.371.435.31.476.235.963.036 1.438a.798.798 0 00-.04.588M16.111 32.275c-.106-.154-.199-.319-.319-.461-.327-.386-.771-.469-1.24-.407-.15.02-.292.032-.44.015m20.603-19.166c.009.009.025.021.024.023-.229.353-.09.645.115.958.146.225.219.499.324.75m-.291-6.486c-.448.131-.886.304-1.365.299-.125-.002-.239-.107-.366-.03M20.085 32.763c-.322.227-.58.527-.898.762-.371.273-.788.347-1.224.386-.065.006-.102-.078-.175-.058.27-.241.498-.525.932-.517.272.005.519-.168.731-.354m-5.364-.755a2.664 2.664 0 00-1.585.073c-.039.015-.094.01-.097.073M4.211 18.791l.217.049c.349.487.485 1.056.715 1.583.07.16.047.341.141.489m15.558 10.51c-.002.572.184 1.054.71 1.334.167.089.359.157.558.178M4.748 25.399c.616.04 1.137.274 1.538.754.032.039.08.066.121.1"/><path d="M12.551 26.569c.02.545.017 1.089.011 1.634-.005.467-.208.885-.238 1.341-.004.071-.001.147-.021.23l.565-.108m-5.463-6.584c-.333.174-.629.387-.804.732-.117.231-.179.469-.102.732.031.106-.02.229.027.341m8.999 7.534c-.59.183-.965.651-1.382 1.058-.058.055-.158.047-.178.138m18.946-7.877c-.61.107-1.067.557-1.072 1.293m1.95-2.902c-.242.479-.431.984-.6 1.49-.225.673-.082 1.322.282 1.924.115.189.222.383.245.61M5.138 14.719c.399.175.788.375 1.188.552.494.218 1.03.333 1.494.618"/><path d="M4.382 23.521c.033.318.325.424.516.605.447.426.998.688 1.558.932.169-.234.314-.491.56-.658.172-.117.282-.289.413-.441.066-.075.117-.162.05-.267m.585-9.461c-.547.112-1.084.266-1.629.385-.394.086-.772-.01-1.15.059-.388.069-.782.021-1.172.082-.174.028-.353.085-.535.06m25.7-11.169c-.146-.141-.304-.139-.489-.077-.342.114-.712.118-1.047.26-.121.052-.133-.1-.22-.11M11.6 3.722c.012.371-.018.723-.313 1.004-.083.078-.167.208-.165.313.004.289-.142.514-.253.756m23.652 16.532c.072.112-.006.212-.053.289-.239.398-.386.84-.602 1.249-.032.061-.053.164-.022.214.156.25.136.538.182.809.053.312.275.452.495.608M20.963 4.015L19.378 3.6m13.338 23.676c-.411.478-.683 1.018-.703 1.658-.006.162.082.322.021.488M7.284 15.938c-.313.109-.313.109-.439.463.096.173.212.329.438.289.152-.027.339-.288.339-.459.001-.204-.174-.233-.314-.293M28.229 26.74c.235-.039.368-.117.344-.391-.017-.188-.129-.312-.368-.338a.403.403 0 00-.437.267c-.024.062-.019.137-.026.206m4.657-14.253c-.044-.14-.03-.309-.22-.367-.22-.067-.385.015-.463.245-.072.21.015.43.195.488.193.063.387-.048.462-.269.01-.024.017-.048.025-.073M2.773 17.84c.169.069.331.152.511.199.429.109.763.379 1.073.681.02.019.017.063.025.096M17.744 3.575c-.161.043-.348.009-.443.217-.096.207.022.34.132.46.119.131.294.124.457.076.032-.01.066-.033.096-.05.151-.084.35-.144.294-.386-.047-.207-.26-.336-.511-.317M4.235 20.547c.342.149.667.344 1.049.393.072.009.082.074.102.143.146.481.305.961.458 1.44M27.4 29.959c-.049-.049-.09-.125-.147-.14-.087-.023-.161-.144-.267-.055-.075.063-.155.129-.146.243.012.139.111.217.221.265.156.065.35-.083.364-.265m-7.559 2.805c-.146-.095-.301-.083-.464-.051-.286.059-.535.191-.781.341-.094.057-.126.123-.121.223M7.893 6.111a1.851 1.851 0 00-.482 1.243c0 .245-.089.512.104.731"/><path d="M6.674 21.327c-.067.278-.156.54-.488.61-.127.026-.16.128-.199.241-.169.506-.054.993.045 1.49.045.227.105.451.13.681m29.481-4.193c-.446.144-.917.01-1.365.123-.026.008-.049.032-.073.048m.486-8.12c.007-.073-.024-.129-.096-.094-.311.147-.667.132-.973.252-.411.163-.847.241-1.249.424-.163.074-.341.116-.511.174m-27.114.342c.069.244.259.402.422.604l-.397.761m22.969 15.801c-.121.025-.241-.023-.367-.016-.109.008-.149.032-.194.113-.091.16-.051.319.122.463.121.101.345.112.434-.003.052-.068.126-.085.176-.144m-6.438.709c.241.109.298.37.349.565.085.324.251.602.383.897m7.388-27.48c.201-.035.316.121.434.225.25.219.515.426.792.595.568.344 1.099.743 1.648 1.112.1.068.2.04.3.082.413.174.735.501 1.162.657.152.055.3.047.444.079.42.092.74.342 1.047.616.199.179.362.404.636.487m-2.537 17.946c-.044-.446-.221-.859-.325-1.301-.132-.048-.244-.016-.334.105a1.757 1.757 0 01-.171.194c-.229.228-.246.228-.487.05"/><path d="M27.986 30.837c.229-.198.599-.161.757.072.111.165-.017.267-.104.363a.353.353 0 01-.46.054c-.205-.135-.229-.359-.287-.564-.024-.088-.03-.177-.102-.242M12.405 4.917c-.359.286-.706.586-1.095.833-.076.048-.177.113-.148.24m23.602 16.142c-.2.067-.337.231-.512.341-.336.208-.691.34-1.097.269M18.646 1.234c-.136.063-.122.148-.036.246.135-.016.157-.106.16-.221.004-.174-.127-.231-.247-.291a.349.349 0 00-.463.144c-.09.155-.177.315.028.435.096.055.225.054.338.078m-7.289 25.262c-.053-.202-.187-.294-.391-.293-.172.001-.262.104-.344.242-.144.241.116.519.344.537.082.007.164.001.25.001.25.234.393.591.701.805m22.458-13.387c-.246.274-.214.574.073.683.214.082.422.022.512-.146.077-.147 0-.431-.147-.536-.038-.028-.08-.049-.121-.073M10.551 7.843c-.025-.283-.22-.403-.464-.461-.216-.052-.438-.084-.657-.125m24.287 5.828c-.228.18-.354.441-.535.66-.172.205-.327.421-.489.632m-.098 13.582c.107.535-.336.848-.513 1.269m-21.653.024c.131-.066.215-.19.209-.317-.006-.113.003-.276-.184-.32-.285-.065-.435-.045-.509.126-.069.161-.064.352.076.454.124.091.3.115.458.153.299.072.437.275.415.538-.017.194-.118.271-.317.245-.16-.021-.286-.082-.342-.245-.073-.214.012-.376.17-.512m-3.463-16.46c-.145.18-.343.347-.425.542-.231.553-.772.703-1.186 1.017-.073.055-.186.068-.169.196m8.876 11.852c-.292-.231-.699-.198-.902.073-.085.113-.073.426.052.506.14.09.289.219.483.128M34.545 8.842c.291.232.62.384.975.49a.55.55 0 00.293-.003M27.06 27.521c.364.27.735.533 1.091.812.413.324.785.701 1.055 1.163m-15.241-2.707a20.73 20.73 0 00-.107.261c.142.11.277.246.472.103.219-.161.262-.38.121-.605-.092-.148-.224-.201-.388-.1M10.258 8.647c-.072-.013-.12-.029-.201.042-.252.216-.549.294-.897.261-.341-.034-.657-.101-.951-.277-.163-.099-.353-.113-.535-.148m4.828-4.877c-.017.016-.044.031-.047.049-.053.38-.125.761-.026 1.146m-7.047 7.754c.092-.005.216.054.242-.098.021-.126-.108-.274-.242-.292-.321-.043-.428.07-.473.389-.025.188-.052.374-.07.562-.012.127-.296.261-.457.244-.183-.019-.203-.135-.199-.292.004-.248.063-.389.248-.408.127-.013.28-.065.39.067m-.61 10.606c.251.171.559.195.831.315.215.095.424.195.608.343M21.719 2.819c.046.05.101.068.17.076.257.029.364.237.404.438.035.183-.153.27-.306.338-.063.029-.13.05-.194.074"/><path d="M5.163 13.816c.085-.28.091-.578.205-.867-.144-.046-.292-.073-.401-.182m13.167-9.704c.176-.227.442-.093.662-.16.318-.097.664-.039.998-.073.303-.03.617.039.926.061.039.002.089.022.122-.023M16.647.844c-.088-.006-.13.077-.141.123-.124.545-.51.883-.932 1.194M5.942 12.988c-.146.394-.29.79-.293 1.219m28.164 9.705c-.436-.025-.847.027-1.225.284-.116.08-.179.142-.166.276M2.968 19.303c.189.149.27.379.415.562.214.269.447.512.804.585M26.205 2.917c.06.404-.118.793-.072 1.196M11.502 26.984c.094.599.222 1.187.435 1.756.078.21.191.406.228.633.011.06.041.15.142.146M27.692 4.015c-.004.43-.211.85-.148 1.264.043.29-.002.634.244.884.074.076.125.168.246.168m-.292-3.999c-.339.303-.754.3-1.17.292M8.113 13.719c-.085.205-.091.436.121.562.153.09.415.004.459-.173.019-.08.055-.154.06-.243.01-.205-.033-.258-.25-.244m5.584 13.607c-.261.267-.426.601-.63.905-.324.483-.713.916-1.054 1.387-.005.007-.031 0-.047 0m1.609-24.482c-.236 0-.473-.011-.707.004-.159.01-.304-.117-.464-.028m23.311 8.535c.134.115.285.229.192.438-.076.172-.195.286-.412.274-.115-.006-.164-.057-.195-.151M4.528 25.302c.271.135.416.401.602.615.367.424.83.671 1.353.781.174.036.355.069.532.115m22.97 1.609c.197.015.355.081.415.293.042.151.052.293-.073.416-.071.07-.131.106-.246.078-.182-.045-.372-.053-.51-.201-.113-.122-.151-.25-.077-.416.079-.176.203-.205.369-.17.031.006.064 0 .099 0m-.684-24.725c-.177.162-.377.196-.61.15-.184-.036-.373-.037-.56-.053m2.804 3.146c-.043.286-.003.559.093.831.047.133.095.234.249.243m-2.683 21.384c-.213.231-.509.312-.78.438-.12.056-.244.099-.366.147m8.363-9.876c-.187.044-.284.232-.35.351-.282.513-.888.597-1.307.54-.118-.017-.253.005-.367-.062m-1.12-5.437c-.039.167.021.295.171.363.158.071.465-.037.556-.194.028-.05.071-.077.102-.12M12.282 29.813c-.118.397-.147.808-.169 1.219m.096 1.389c.298-.085.581.044.849.113a1.98 1.98 0 001.271-.065c.391-.154.791-.137 1.195-.096m-4.68-3.999c.362.211.689.491 1.122.561"/><path d="M35.398 20.449c-.133-.034-.25.021-.365.073-.294.13-.576.162-.857-.044-.066-.048-.176-.056-.265-.05-.158.011-.448.358-.464.531.312.056.479-.26.757-.292M7.844 25.57c.052.067.055.175.02.214-.25.271-.521.52-.751.81M17.988 2.99c.272.187.417.479.609.732.206.273.184.632.338.928.074.142.102.307.151.461m-7.12 20.947c-.018-.195.056-.407-.144-.564a.254.254 0 00-.315-.015c-.154.114-.288.271-.268.48.012.126-.029.21-.128.291.067.067.178.054.196.148m6.584-22.871c.002-.196.11-.427.01-.575-.114-.169-.373-.196-.571-.277-.193-.079-.39-.147-.585-.221m16.776 9.875c-.36-.102-.732-.055-1.099-.097M6.04 19.57c.127.09.072.22.043.316a1.929 1.929 0 01-.58.903m-.878-3.9c.08.267.069.534.028.805a.441.441 0 00.021.268m23.141 11.191c-.271.095-.551.077-.83.071-.148-.003-.266.021-.368.147-.202.247-.367.269-.582.099-.171-.134-.18-.342-.024-.585M18.769 3.99c.228.074.271.313.412.465.258.279.534.542.759.852m-6.463 21.994c-.081.309-.164.617-.242.927-.011.046-.039.098-.002.146M34.302 7.55c-.368-.049-.731.034-1.098.024-.07-.002-.117.043-.171.074M19.622 1.624c.117-.081.219-.2.391-.123.163.072.236.195.17.318-.065.124-.282.209-.389.146-.086-.051-.164-.116-.196-.218M36.13 13.451c.194.013.318-.115.406-.249a.337.337 0 00.008-.336.482.482 0 00-.341-.241c-.106-.019-.326.314-.316.46.008.124.095.263.257.401-.148.039-.312.042-.422.119-.122.084-.201.235-.128.406M4.723 18.035c.167.366.036.719-.049 1.074m29.701-5.487c.064.355.046.714.048 1.073M16.477.99c-.252.154-.52.289-.752.468-.319.246-.605.535-.708.947-.02.082-.084.097-.126.145-.195.22-.379.452-.634.61m2.805 28.14c.121-.101.175-.098.293 0 .349.291.542.678.682 1.098m15.021-6.145c-.172.362-.323.728-.297 1.146.017.254.04.518-.093.757m-24.58-3.854c.026.063-.028.114.013.2.125.257.071.534-.016.799-.017.053-.028.128-.119.124-.042-.001-.059-.008-.049-.05m.61-10.095c.068.104.039.231.111.348.101.164-.065.438-.282.554-.165.089-.314.044-.462-.146-.105-.135-.025-.262.024-.39m28.334 3.047c-.166-.057-.313.036-.434.105-.252.143-.438.087-.615-.105M3.089 15.841c-.002.285.09.555.153.827.017.07-.03.172.066.221m23.141 10.9v.165c.306.064.586.198.878.298M7.601 15.28c-.349.033-.7-.038-1.048.024m27.431 8.705c.105.22.225.434.313.659.221.557.378 1.125.223 1.73m-2.389-20.19c-.152-.045-.294.029-.438.054-.207.037-.407.108-.611.165m-8.876 24.848c.077-.001.07.115.172.102.388-.056.578.227.843.442.354.287.356.721.592 1.044.04.056.036.144.052.217m-16.41-19.8c-.332.194-.695.318-1.049.463m13.216-11.85c-.306.306-.622.604-.853.975m10.436 24.385l-.098 1.048M7.259 23.716c-.08.166-.313.119-.393.292-.077.168-.178.325-.264.49-.019.036-.031.067-.075.072M31.011 6.964c.013.384.167.735.271 1.097.09.311.365.489.581.708m4.731 9.681c.068.165.176.303.29.441.321.385.475.839.489 1.339.004.146.021.297-.004.438-.038.21-.016.41.029.611M14.257 2.283c-.082.329-.193.653-.17 1m15.508 2.682c-.017.033-.054.072-.045.096.094.271 0 .559.07.83.007.027.032.049.048.073M7.893 25.447c-.425.206-.578.622-.78 1M32.399 13.28c.1.203.191.388.008.616-.114.141-.192.157-.325.066"/><path d="M8.21 15.133c.137-.077.113-.175.051-.293-.068-.129-.166-.063-.246-.044-.235.054-.429.344-.366.534.077.236.412.373.657.268l.22-.097m-1.632 5.484c-.103.125-.196.25-.336.349-.186.133-.342.314-.322.578m23.018 4.609c.188.01.288.123.313.293.02.134-.02.23-.158.328-.195.136-.327.042-.469-.04-.121-.068-.168-.199-.147-.337.03-.189.186-.22.34-.243.032-.005.065-.001.098-.001m-7 6.583c-.032.194-.243.188-.352.31-.186.208-.445.349-.62.572-.082.104-.146.06-.224.021m3.049-.732c-.266.134-.333.428-.506.639-.363.441-.843.659-1.372.796-.13.033-.241.14-.389.102m-3.975-2.269a.26.26 0 01-.072.196c-.342.352-.716.677-1.154.889-.251.121-.545.213-.847.184m11.948-6.974c-.039 0-.081-.002-.121 0-.102.006-.188.055-.215.147-.026.092.052.16.117.218.253.221.568.136.731-.194m5.682-20.557c-.675.033-1.35.06-2.023.102-.167.011-.321-.119-.488-.028m.56 6.657c-.04-.081-.07-.17-.123-.242-.07-.092-.182-.163-.288-.117-.118.051-.295.054-.303.261-.003.062 0 .132-.019.195-.033.121.055.181.125.243.085.075.174 0 .212-.052.074-.098.191-.115.276-.188.157-.135.334-.136.509-.026M6.284 24.936c.061-.125-.008-.241-.079-.312-.176-.175-.284-.413-.507-.542M26.4 3.941c-.088.083-.16.183-.275.236.101.422.138.865.593 1.081m-6.315.024c.191-.06.441-.015.513-.292.023-.091-.078-.433-.174-.486-.149-.082-.32-.096-.459.001-.321.223-.31.418.021.753m-.121-.098c-.305.269-.31.43-.08.666.086.089.218-.062.251.09m-9.559.292c-.067-.074.004-.131.004-.178.386-.027.75.03 1.118-.014.396-.047.666.288 1.023.363"/><path d="M26.182 2.771c.197.173.152.409.174.634.034.335.094.667.144 1a.299.299 0 01-.05.195M8.137 12.792c-.003-.193-.126-.264-.293-.265-.12-.001-.194-.046-.244-.15-.093-.195-.271-.197-.438-.166a.319.319 0 00-.268.312c-.008.167-.022.347.193.415m.587-5.9c-.042.333-.082.667-.122 1M32.447 14.5c-.115.166-.171.336-.078.539.021.048.031.107.079.117.188.036.201.17.194.32.119.009.096-.077.099-.146m2.023 6.947c-.208.456-.187.91 0 1.366M8.015 13.305l.108.194c-.521.32-1.034.638-1.548.95-.054.033-.101.063-.121.124M33.57 6.38c-.399-.162-.802-.303-1.245-.197-.154.037-.256.113-.292.27m-2.559 23.335c-.603.081-1.134.351-1.658.634M10.746 6.111l-.878.488M5.479 26.204c.447-.006.811.194 1.146.463m14.606 7.072c-.017.007-.04.011-.048.024-.134.206-.301.35-.561.397-.159.028-.298.146-.463.19a.507.507 0 01-.245-.003m-9.241-5.388c.363.192.775.289 1.097.561m10.023 3.267c-.069-.151-.142-.298-.268-.416-.148-.139-.189-.304-.129-.512.063-.216.069-.431-.162-.588-.183-.124-.357-.233-.588-.19m15.069-19.923c-.328.339-.634.701-1.023.976m.121 11.57c.136.063.096.203.116.306.046.229.172.421.249.634M8.844 8.867c-.072-.279-.27-.364-.537-.37-.146-.003-.292-.045-.438-.069M27.57 32.495c.094-.011.03-.082.081-.187l-.909.454m8.218-20.799c.104.083.065.211.094.317.084.318.173.628.365.904.097.139.15.307.224.461m-.855 8.414c.104.458.106.933.217 1.39.028.115-.071.191-.143.268m-18.727 7.12c.019.037.01.094.074.098.309.019.585.124.829.316M32.96 7.696c-.061.106.026.164.068.247.094.188.316.325.249.582M5.821 12.842c.246.209.377.176.585-.147-.09-.102-.14-.259-.317-.243-.172.017-.248.13-.268.292m9.119-9.535a.92.92 0 00-.49.093c-.093.043-.204.083-.315.028m-.95-1.267c-.066.266-.28.436-.417.658-.11.177-.183.364-.246.561-.077.242.081.424.107.645.207-.105.218-.162.116-.498m22.458 10.558c.193.04.302.162.267.316-.038.161-.111.278-.315.248-.173-.026-.239-.124-.17-.295a.573.573 0 01.17-.245M29.303 29.52c.285.402.663.719 1 1.073M28.498 4.404c.289.221.5.527.805.731M14.77 3.502c-.152-.009-.289.066-.437.087-.148.021-.294.02-.441.034M4.455 21.571c.113.069.195.219.366.146.006-.003.016-.002.024 0 .352.068.874.722.878 1.097m25.75-17.58c.146.002.302-.044.438.13-.346.089-.656.233-1.004-.001a.651.651 0 00-.604-.056"/><path d="M13.063 2.722c-.125.184-.124.404-.168.61-.012.055 0 .111-.076.122m2.292 28.358c-.278-.04-.503-.192-.731-.341M27.889 4.234c-.011.173.025.342.045.512.034.304.005.594-.289.78m6.266 16.922c-.448.061-.833.315-1.268.415M20.72 5.258c.147.275-.021.554-.341.585M7.601 22.863c-.244.173-.165.5-.338.709-.013.016.012.091.021.091.094.006.193.028.269-.057m4.559 2.256c.351-.122.448-.089.561.195.095.24.05.39-.146.487-.14.07-.345-.007-.464-.171-.02-.026-.048-.049-.087-.087.15-.09.047-.254.112-.376m-1.391 2.536c.205-.1.165-.274.118-.437-.023-.08-.083-.162-.191-.146a.352.352 0 00-.243.17c-.065.101-.004.199.028.291.027.075.125.084.19.122m4.293-23.773c-.25.074-.444.27-.706.323-.05.01-.099.006-.147.019m4.852 26.358c-.047.144.031.282.104.359.325.342.618.729 1.066.933M3.528 17.083c-.027-.065-.064-.12-.146-.124-.008.218.159.453.488.686"/><path d="M18.72 31.031a.841.841 0 00.29.395c.186.153.31.349.295.606M7.65 22.692a.211.211 0 00.016.175c.104.229.118.469-.065.679m.463-10.704c.121-.026.241.005.368-.041.175-.064.52.104.552.26.046.225-.078.39-.262.512m14.557 18.776c.118.261.301.47.513.658m9.339-7.316c-.209-.049-.245.165-.36.252-.183.138-.368.293-.444.528m-17.826 5.926c-.21-.157-.455-.072-.683-.098m-2.511-5.754c.067-.147.209-.061.233-.019a.394.394 0 01.028.285c-.028.096-.108.183-.237.173m3.951 4.853c.275-.015.453.198.683.292m2.633-30.627c-.153.112-.232.239-.151.441.044.111.038.242.054.364m2.901 1.243a.41.41 0 00-.367.22c-.099.165.002.409.196.464.331.094.536-.055.537-.391v-.14c-.183-.018-.347-.079-.415-.275m-9.851 25.97c-.222.032-.394.224-.634.194m4.316 2.294c-.008.106.021.163.143.204.118.04.254.08.345.186M31.047 5.501c-.04.073-.112.095-.184.096-.338.002-.681.031-1-.12m2.975 2.682c.135.157.249.323.461.411.176.074.248.292.328.451.073.145.184.213.284.309m-4.267-4.122c.205.036.394.146.61.123M11.137 7.599c-.195.099-.391-.06-.586 0m-.854-2.756c-.264.234-.323.568-.444.876-.051.134.079.246.006.368m25.92 15.337l-.365.586m.438-9.242l.585.146m-3.511 13.655c-.094.194-.286.3-.424.455-.098.109-.181.207-.21.35M9.21 5.843c-.117.039-.161.111-.177.243-.041.325-.111.659-.051.973.043.228-.051.312-.187.417m2.342 18.704c-.251.01-.297.199-.342.39m1.049-20.483c.171.226.412.221.658.195M3.285 18.157c.136.119.268.246.439.317m24.895 11.607a1.619 1.619 0 01-.146.536m-.584-25.14c.065.166-.014.374.146.512M4.943 14.768c.046.177.197.316.195.512M20.866 2.624c-.026.326.136.5.364.388.049-.023.082-.079.123-.12m-9.851 1.756c.083.287.003.419-.366.61m.244-.074c.012.21-.124.346-.244.488M26.06 28.861c.162-.125.327-.077.486.003.036.018.105.045.052.12-.04.056-.066-.01-.099 0m1.706-2.097c.012-.185-.058-.331-.244-.36-.177-.028-.376-.104-.516.113-.062.097-.038.166.004.247m2.805-23.044c-.229-.166-.498-.146-.756-.152-.055-.002-.105-.016-.158-.019M6.211 21.961c-.017.253-.044.503-.22.707m21.385 5.608c.301.114.6.232.927.243m6.535-5.802c-.125.12-.021.329-.171.439M6.455 15.621l.463.438m25.701-8.411l.194.462m-16.8-5.267c-.234.17-.526.196-.78.317M4.285 20.181l-.463.049m30.553-8.486c.144.106.34.125.463.268m-.78-3.682l.39.415M19.841 32.909c-.199-.034-.385.067-.586.057-.086-.005-.178.032-.267-.008m-4.145-1.39c.054.115.178-.002.235.063.085.052-.05.219.131.208.108-.007.004-.111.073-.125M3.87 21.181c-.008.121.041.182.17.198a.832.832 0 01.366.168m9.193 4.851a.71.71 0 01.219.439m22.97-7.973c-.024.151.088.271.098.414m-31.017-.293c-.097.125-.048.259-.024.391m-.244-6.779c.101.153-.06.192-.125.264-.016.017-.067.024-.093.053m3.096 2.33c.108-.178.021-.261-.146-.306m21.311 14.29c-.102.113-.09.291-.219.39m-8.73 1.511a.601.601 0 00.216.298c.125.101.248.214.301.384.015.044.053.125.142.099M15.379 2.209c-.142.028-.184.215-.341.22m14.679 4.56l-.049.365M6.455 25.082c.044.11.094.22.098.341m-1.854-3.657c-.009.264.218.359.365.512M9.43 8.842c-.164-.26-.422-.258-.683-.244m24.921 6.585c-.036 0-.08-.009-.073.048.013.105.085.207.024.317M21.354 2.356c-.158.237-.382.201-.609.146M8.479 15.28l-.317.219m27.261 3.414c-.259.164-.259.164-.561-.049M4.796 17.718c.037.214.036.216-.097.268"/><path d="M25.937 28.861c-.053-.072-.102-.122-.113-.241-.023-.229.068-.237.236-.252.089-.007.181.08.271-.017.078-.084.176.032.264-.005.09.124.092.256.051.394m-9.901 4.486c-.071.106-.023.212 0 .317m9.68-5.535c-.065.09-.046.193-.049.293M4.211 20.107c.107.104.269.125.368.246-.087.207-.26-.025-.367.072-.013.01-.02.031-.023.048-.001.006.015.016.022.024m22.97-17.019c.098.072.195.146.293.219m2.365 24.749a.372.372 0 01-.171.245m4.243-13.948c-.148-.037-.286-.009-.36.125-.055.098-.079.225.044.315m-28.189 7.29l.244.293m26.164-9.291c.005.071-.03.131-.046.196-.051.209.013.298.24.365.141-.086-.015-.219.049-.316M6.601 26.447c.089.059.187.111.17.244m19.922 1.122c-.124.004-.242-.015-.29-.146-.028-.078-.096-.086-.148-.121m8.754-3.976c.159-.009.113.109.121.195m-12.167 7.877c-.111.306.096.488.268.683M8.088 5.575c-.023.125-.04.248-.145.342-.13.118.034.263-.025.389m12.119-1.585c-.092-.035-.158-.128-.268-.122M13.77 32.495c-.075.019-.181-.056-.219.072m.609-27.773c-.146.009-.077.16-.146.22m20.068 10.461c-.159.169-.34.183-.536.074-.059-.032-.05-.075-.024-.123M22.036 3.404c-.042-.043-.073-.033-.071.024.002.105-.044.153-.147.146m-6.536 29.213c-.211.131-.423.26-.634.39M17.769 3.6c.022.072-.055.165.049.219m10.411 26.945c.014.104-.019.182-.121.22m-4.707 1.073c-.128.042-.035.174-.098.243m5.316-29.822c-.037.128-.144.053-.219.073m3.073 10.729c-.005.105.016.213-.024.317M10.429 28.74c.036.077.091.149.073.244M7.723 13.305c-.185.084-.252-.063-.341-.171m.219-6.511c.129.039.054.145.074.219M15.721 32.3c.014.15-.054.245-.195.292m3.706.512c-.077-.051-.163-.01-.244-.023m4.097-1.269c-.014.074.034.162-.049.221M14.355 2.015c-.092.061-.014.173-.073.244m4.413-.147a1.526 1.526 0 01-.39.391m-.243.194l-.219.146m8.509 1.318c-.041.078-.07.164-.146.219m-5.682.927c-.009.075.071.169-.048.219m9.802-.147l.146.171M7.552 6.891c.063.061-.024.17.073.219m1.268 1.586c.074.05.16.09.171.195m22.482 4.828c.072.039.077.168.195.146M8.333 15.621c.025.063.136.115.024.194m26.7 3.219c-.058.085-.145.036-.219.05m2.39 1.463c.01.069-.04.174.098.17m-32.188 4.95c-.071-.024-.131-.101-.22-.049m7.145.171c-.128-.04-.26-.022-.391-.023-.073 0-.124-.027-.146-.099m1.659 3.999c-.078.022-.121.122-.22.098m18.166-24.53c-.063.013-.135-.028-.195.024m1.951 9.291c-.1-.188-.235-.181-.39-.074m-5.828 14.582l.049.195m-6.364-23.97c.051.072.113.146-.049.146m9.606 23.458c-.096.026-.011.13-.072.171M8.722 13.865c-.114.005-.245-.045-.316.097M27.352 30.52c-.062.041.023.146-.073.171M14.208 2.063c.007.072-.028.159.073.195m13.168 28.213c.008.064-.033.148.073.171M12.599 3.161c.095.039.012.144.074.195m8.632 28.066c-.051.06-.012.131-.024.195M35.618 14.06c.087.083.194.037.293.049M25.719 27.667c.128-.088.216.107.341.049m-15.68.951c.04.063-.05.108-.024.17M7.552 16.353h-.171m1.292-2.342h-.17M30.96 6.526l-.024.365m-2.78 20.312l.146.171m7.413-13.558c-.007.091.027.19-.049.268M17.281 31.471a8.567 8.567 0 00-.146-.122m-3.902-1.975c.056.018.104.086.171.024M27.961 2.356c-.029.061-.064.114-.146.097m8.681 16.021c-.068.094-.123.194-.098.317M7.674 12.524c-.049.101-.003.23-.098.317m27.653 1.512v.17m-21.24 12.071c-.164.184.096.155.122.244m19.02-11.266c-.104.124-.158.021-.225-.056a4.945 4.945 0 01-.093.105m-27.285-.098c.007.105-.03.166-.146.146m3.267-2.535c-.043.042-.028.053.023.076.086.039.093.113.05.192m25.018-1.804c.092.02.079.116.122.171"/><path d="M33.96 10.988c-.371.121-.392.386-.315.78.027.141.138.169.267.174.191.008.323-.064.391-.247.023-.065.052-.129.071-.195.106-.348-.017-.508-.389-.512M14.331 27.472c-.443.26-.427.527.06.836.065-.033.14-.063.208-.105a.305.305 0 00.097-.437c-.09-.123-.176-.255-.34-.294"/></g><circle fill="#211915" cx="28.104" cy="20.336" r=".565"/><circle fill="#211915" cx="12.822" cy="20.351" r=".566"/></svg>