<svg height="512" viewBox="0 0 64 64" width="512" xmlns="http://www.w3.org/2000/svg"><path d="M62 12.5h-1.999c0-2.757-2.243-5-5-5H55v-1h.001a1 1 0 100-2H53a1 1 0 100 2v1h-6v-3a1 1 0 00-1-1H34a1 1 0 00-1 1v3H9.998c-2.757 0-5 2.243-5 5v18c0 2.757 2.243 5 5 5H13v1.994l-.001.005.001.005v2.995h-2.586l-.707-.706a.999.999 0 10-1.414 1.414l.999.998a.99.99 0 00.326.217.991.991 0 00.382.077h3v.001a1 1 0 102 0v-.001h3c.13 0 .26-.026.382-.077a.99.99 0 00.326-.217l.999-.998a.999.999 0 10-1.414-1.414l-.707.706H15v-2h1a1 1 0 100-2h-1V35.5h3c2.757 0 5-2.243 5-5v-4a1 1 0 011-1h12.999a1 1 0 011 1v18H3c-1.654 0-3 1.346-3 3v4c0 4.963 4.037 9 9 9h46c2.757 0 5-2.243 5-5v-9.995l.001-.005-.001-.005V26.5h2c1.103 0 2-.897 2-2v-10c0-1.103-.897-2-2-2zm-19.382-5l1-2H45v2zm-4 0l1-2h1.764l-1 2zM35 5.5h2.382l-1 2H35zm4.999 21c0-1.654-1.346-3-3-3H24c-1.654 0-3 1.346-3 3v4c0 1.654-1.346 3-3 3H9.998c-1.654 0-3-1.346-3-3v-18c0-1.654 1.346-3 3-3H13v22a1 1 0 102 0v-22h40.001a3.004 3.004 0 013 2.997L58 12.5v32H39.999zM55 58.5H9c-3.859 0-7-3.141-7-7v-4a1 1 0 011-1h55v9c0 1.654-1.346 3-3 3zm5-36a1 1 0 100-2v-2a1 1 0 100-2v-2h2v10h-2z"/><path d="M49 29.5c-3.309 0-6 2.691-6 6s2.691 6 6 6 6-2.691 6-6-2.691-6-6-6zm0 10c-2.206 0-4-1.794-4-4s1.794-4 4-4 4 1.794 4 4-1.794 4-4 4zm.02-13c-.552 0-.994.447-.994 1s.452 1 1.005 1a1 1 0 100-2z"/><path d="M49.03 32.5h-.01c-.552 0-.994.447-.994 1s.452 1 1.005 1a1 1 0 10-.001-2zm-4.01-4.928c-.552 0-.994.447-.994 1s.452 1 1.005 1a1 1 0 100-2zM42.102 30.5h-.011c-.552 0-.994.447-.994 1s.452 1 1.005 1a1 1 0 100-2zm13.855 0h-.011c-.552 0-.994.447-.994 1s.452 1 1.005 1a1 1 0 100-2zm-2.929-2.928h-.011c-.552 0-.994.447-.994 1s.452 1 1.005 1a1 1 0 100-2zM44 19.5h10a1 1 0 001-1v-5a1 1 0 00-1-1H44a1 1 0 00-1 1v5a1 1 0 001 1zm1-5h8v3h-8zm-11-1h-6c-1.654 0-3 1.346-3 3s1.346 3 3 3h6c1.654 0 3-1.346 3-3s-1.346-3-3-3zm-6 2a1 1 0 110 2 1 1 0 010-2zm6 2h-3.185c.112-.314.185-.647.185-1s-.072-.686-.185-1H34a1 1 0 010 2z"/></svg>