<svg xmlns="http://www.w3.org/2000/svg" width="117" height="40"><path d="M25.546 15.081c-1.373-1.205-1.737-2.773-1.737-4.132 0-.953.294-2.605 1.639-3.838 1.009-.925 2.339-1.485 4.426-1.485.869 0 1.387.056 2.031.14.532.07.98.196 1.401.238.154.014.21.084.21.168 0 .112-.042.28-.07.77-.028.462-.014 1.233-.042 1.513-.014.21-.042.322-.168.322-.112 0-.14-.112-.14-.308a1.993 1.993 0 00-.546-1.288c-.462-.49-1.555-.869-2.844-.869-1.219 0-2.017.309-2.633.869-1.022.938-1.289 2.269-1.289 3.628 0 3.334 2.535 4.987 4.412 4.987 1.247 0 2.003-.14 2.563-.785.238-.266.42-.672.477-.924.042-.224.07-.28.182-.28.098 0 .126.098.126.21 0 .168-.168 1.387-.308 1.863-.07.238-.126.308-.364.406-.561.224-1.625.322-2.521.322-1.919 0-3.53-.42-4.805-1.527zm17.097-3.796c.028 0 .07-.014.07-.084v-.252c0-1.807-.014-2.241-.028-2.62-.028-.406-.14-.532-.533-.644a2.217 2.217 0 00-.476-.042c-.14 0-.21-.042-.21-.126 0-.084.084-.112.266-.112.658 0 1.527.028 1.849.028.294 0 1.106-.028 1.583-.028.182 0 .266.028.266.112s-.084.126-.224.126c-.098 0-.21.014-.364.042-.322.056-.42.224-.448.644-.028.378-.028.714-.028 2.521v2.101c0 1.093 0 2.031.056 2.549.042.336.112.561.49.617.168.028.434.042.63.042.126 0 .196.07.196.126 0 .084-.098.126-.252.126-.798 0-1.611-.042-1.947-.042-.28 0-1.148.042-1.625.042-.168 0-.266-.042-.266-.126 0-.056.056-.126.196-.126.196 0 .336-.014.448-.042.252-.056.322-.28.364-.63.056-.504.056-1.415.056-2.507v-.911c0-.042-.042-.07-.07-.07h-4.65c-.042 0-.084.014-.084.07v.911c0 1.092.014 2.003.07 2.521.042.336.112.561.476.617.168.028.448.042.63.042.14 0 .196.07.196.126 0 .084-.098.126-.252.126-.798 0-1.653-.042-2.003-.042-.28 0-1.093.042-1.583.042-.154 0-.238-.042-.238-.126 0-.056.042-.126.196-.126.182 0 .322-.014.434-.042.252-.056.322-.28.364-.63.056-.504.056-1.443.056-2.536v-2.101c0-1.807 0-2.143-.014-2.521-.028-.406-.14-.532-.532-.644a2.27 2.27 0 00-.49-.042c-.126 0-.21-.042-.21-.126 0-.084.098-.112.266-.112.658 0 1.471.028 1.807.028.294 0 1.148-.028 1.639-.028.168 0 .252.028.252.112s-.07.126-.224.126c-.098 0-.21.014-.35.042-.336.056-.434.224-.462.644-.028.378-.028.813-.028 2.62v.252c0 .07.042.084.084.084h4.651zm4.266.616c0-2.031 1.429-4.665 5.169-4.665 3.109 0 5.042 1.723 5.042 4.454s-1.989 4.875-5.168 4.875c-3.586.001-5.043-2.549-5.043-4.664zm8.376.224c0-2.634-1.583-4.258-3.572-4.258-1.373 0-2.984.728-2.984 3.67 0 2.451 1.401 4.384 3.726 4.384.869 0 2.83-.406 2.83-3.796zm5.779.827c0 1.527 0 2.283.266 2.507.211.182.688.252 1.64.252.658 0 1.135-.014 1.442-.336.154-.154.28-.49.309-.714.014-.112.042-.182.14-.182.084 0 .112.126.112.266s-.084 1.022-.183 1.373c-.084.266-.14.322-.783.322-.884 0-1.598-.014-2.214-.042-.616-.014-1.135-.028-1.639-.028-.141 0-.406.014-.701.014-.293.014-.602.028-.854.028-.154 0-.238-.042-.238-.126 0-.056.042-.126.196-.126.182 0 .322-.014.434-.042.253-.056.322-.28.364-.63.057-.504.057-1.443.057-2.536v-2.101c0-1.807 0-2.143-.015-2.521-.028-.406-.14-.532-.532-.644a1.643 1.643 0 00-.406-.042c-.14 0-.21-.042-.21-.126 0-.084.084-.112.266-.112.575 0 1.359.028 1.695.028.294 0 1.303-.028 1.778-.028.183 0 .268.028.268.112s-.07.126-.225.126c-.141 0-.336.014-.477.042-.336.056-.434.224-.463.644-.027.378-.027.714-.027 2.521v2.101zm6.076-2.101c0-1.807 0-2.143-.014-2.521-.028-.406-.154-.546-.42-.63a1.584 1.584 0 00-.449-.056c-.125 0-.195-.028-.195-.14 0-.07.098-.098.293-.098.463 0 1.303.028 1.654.028.308 0 1.105-.028 1.582-.028.154 0 .252.028.252.098 0 .112-.07.14-.195.14-.127 0-.225.014-.365.042-.336.056-.434.224-.461.644-.029.378-.029.714-.029 2.521v2.101c0 1.149 0 2.101.057 2.605.042.322.126.504.49.561.168.028.448.042.631.042.14 0 .195.07.195.126 0 .084-.098.126-.238.126-.813 0-1.652-.042-1.988-.042-.281 0-1.121.042-1.611.042-.154 0-.238-.042-.238-.126 0-.056.043-.126.196-.126.183 0 .322-.014.435-.042.252-.056.322-.224.363-.575.057-.49.057-1.442.057-2.591v-2.101zm7.336-2.718l-1.834.042c-.715.014-1.009.098-1.191.364a1.382 1.382 0 00-.209.406c-.03.098-.057.155-.141.155s-.112-.07-.112-.196c0-.196.238-1.345.267-1.443.027-.154.07-.224.14-.224.099 0 .224.098.532.14.364.042.826.056 1.232.056h5.001c.392 0 .659-.028.841-.056.195-.028.294-.056.336-.056.084 0 .098.07.098.252 0 .252-.027 1.135-.027 1.443-.014.126-.043.196-.112.196-.099 0-.126-.056-.14-.238l-.015-.126c-.028-.308-.351-.672-1.456-.687l-1.556-.028v4.818c0 1.093.014 2.031.069 2.549.042.336.112.561.476.617.169.028.449.042.631.042.141 0 .196.07.196.126 0 .084-.099.126-.238.126-.813 0-1.639-.042-1.989-.042-.279 0-1.12.042-1.61.042-.154 0-.238-.042-.238-.126 0-.056.042-.126.196-.126.182 0 .336-.014.434-.042.252-.056.322-.28.365-.63.055-.504.055-1.443.055-2.536V8.133zm6.916 5.267c-.07 0-.084.014-.111.084l-.659 1.611c-.126.294-.183.588-.183.729 0 .21.113.336.49.336h.183c.154 0 .183.056.183.126 0 .098-.07.126-.196.126-.406 0-.98-.042-1.373-.042-.126 0-.784.042-1.429.042-.154 0-.225-.028-.225-.126 0-.07.043-.126.141-.126.112 0 .252-.014.364-.014.56-.084.771-.448 1.022-1.051l3.222-7.438c.14-.336.238-.476.364-.476.182 0 .238.112.364.378.294.658 2.353 5.477 3.138 7.284.477 1.079.826 1.233 1.051 1.275.182.028.322.042.462.042.112 0 .169.042.169.126 0 .098-.07.126-.533.126-.434 0-1.33 0-2.367-.028-.225-.014-.364-.014-.364-.098 0-.07.028-.112.154-.126.084-.014.168-.126.112-.266l-.953-2.41c-.027-.07-.07-.084-.126-.084h-2.9zm2.632-.658c.057 0 .07-.028.057-.07l-1.162-2.983c-.015-.042-.028-.112-.057-.112-.042 0-.056.07-.07.112l-1.19 2.97c-.028.056 0 .084.042.084h2.38zm4.872 3.515c-.197-.084-.238-.14-.238-.406 0-.645.056-1.387.07-1.583 0-.182.055-.308.153-.308.112 0 .126.112.126.196 0 .154.043.406.112.617.267.882 1.19 1.176 1.961 1.176 1.065 0 1.709-.672 1.709-1.513 0-.518-.126-1.037-1.219-1.681l-.714-.42c-1.457-.854-1.934-1.653-1.934-2.704 0-1.457 1.4-2.395 3.109-2.395.799 0 1.43.112 1.752.196.111.028.168.07.168.154 0 .154-.043.49-.043 1.429 0 .252-.056.378-.153.378-.085 0-.126-.07-.126-.21 0-.112-.057-.476-.322-.784-.182-.224-.574-.561-1.373-.561-.883 0-1.681.462-1.681 1.275 0 .532.196.953 1.303 1.569l.504.28c1.625.896 2.13 1.807 2.13 2.885 0 .883-.337 1.597-1.233 2.228-.589.42-1.4.49-2.06.49-.713.001-1.47-.069-2.001-.308zM40.344 26.684c0-2.129 0-2.521-.028-2.969-.028-.477-.14-.701-.602-.799a2.88 2.88 0 00-.546-.042c-.154 0-.238-.028-.238-.126s.098-.127.308-.127c.743 0 1.625.043 2.017.043.435 0 1.317-.043 2.157-.043 1.751 0 4.09 0 5.617 1.598.7.729 1.359 1.891 1.359 3.559 0 1.764-.743 3.109-1.527 3.908-.645.658-2.101 1.652-4.693 1.652-.504 0-1.079-.043-1.611-.084-.532-.043-1.022-.084-1.373-.084-.154 0-.462 0-.798.014-.322 0-.687.027-.967.027-.182 0-.28-.041-.28-.139 0-.07.056-.113.224-.113.21 0 .378-.027.504-.055.28-.057.351-.365.406-.771.07-.588.07-1.695.07-2.982v-2.467zm1.751 1.541c0 1.484.014 2.564.028 2.83.014.35.042.91.154 1.064.182.266.728.561 1.835.561 1.429 0 2.381-.281 3.222-1.01.896-.77 1.177-2.045 1.177-3.486 0-1.779-.743-2.928-1.345-3.502-1.289-1.232-2.886-1.4-3.979-1.4-.28 0-.798.041-.91.098-.126.055-.168.125-.168.279-.014.477-.014 1.695-.014 2.803v1.763zm10.513-.575c0-1.807 0-2.143-.014-2.521-.028-.406-.14-.531-.532-.645a2.347 2.347 0 00-.49-.041c-.126 0-.21-.043-.21-.127s.098-.111.28-.111c.644 0 1.429.027 1.779.027.392 0 3.124.014 3.362 0 .224-.014.42-.055.518-.07.07-.014.14-.055.196-.055.07 0 .084.055.084.111 0 .084-.07.225-.098.77-.014.127-.042.645-.07.785-.014.057-.042.197-.14.197-.084 0-.098-.057-.098-.154a1.13 1.13 0 00-.084-.436c-.098-.209-.196-.377-.813-.434-.21-.027-1.681-.057-1.933-.057-.056 0-.084.043-.084.113v2.941c0 .07.014.125.084.125.28 0 1.877 0 2.157-.027.294-.027.462-.07.588-.182.098-.084.14-.154.196-.154.056 0 .098.057.098.125 0 .07-.028.268-.098.869-.028.238-.056.715-.056.799 0 .098-.014.266-.126.266-.084 0-.112-.041-.112-.098-.014-.127-.014-.281-.042-.434-.07-.238-.224-.422-.687-.463-.224-.027-1.625-.057-1.933-.057-.056 0-.07.057-.07.127v.951c0 .406-.014 1.416 0 1.766.028.813.406.994 1.667.994.322 0 .84-.014 1.163-.154.308-.139.448-.391.532-.881.028-.127.056-.184.14-.184.098 0 .112.154.112.281 0 .266-.098 1.078-.168 1.316-.084.309-.196.309-.658.309a48.37 48.37 0 01-2.269-.043c-.603-.014-1.065-.027-1.429-.027-.14 0-.406.014-.7.014-.294.014-.603.027-.854.027-.154 0-.238-.041-.238-.125 0-.057.042-.127.196-.127.182 0 .322-.014.434-.041.252-.057.322-.281.364-.631.056-.504.056-1.443.056-2.535V27.65zm8.26 4.426c-1.219-1.021-1.541-2.367-1.541-3.516 0-.813.267-2.213 1.442-3.264.896-.783 2.074-1.26 3.909-1.26.77 0 1.232.055 1.793.125.461.07.867.154 1.232.197.14.014.182.07.182.139 0 .1-.027.238-.057.66-.027.391-.027 1.049-.041 1.287-.014.168-.057.295-.168.295-.099 0-.127-.098-.127-.252a1.674 1.674 0 00-.477-1.107c-.42-.406-1.246-.699-2.381-.699-1.078 0-1.765.195-2.325.672-.91.785-1.135 1.934-1.135 3.096 0 2.83 2.186 4.174 3.839 4.174 1.092 0 1.694-.084 2.185-.631.21-.236.378-.574.421-.797.027-.184.056-.238.154-.238.084 0 .139.111.139.209 0 .141-.139 1.178-.266 1.584-.056.209-.111.266-.322.35-.49.195-1.429.266-2.227.266-1.68-.001-3.109-.35-4.229-1.29zm8.328-3.375c0-2.031 1.43-4.664 5.17-4.664 3.109 0 5.042 1.723 5.042 4.453 0 2.732-1.989 4.875-5.169 4.875-3.586 0-5.043-2.549-5.043-4.664zm8.377.225c0-2.635-1.583-4.258-3.572-4.258-1.373 0-2.983.727-2.983 3.67 0 2.451 1.401 4.383 3.726 4.383.868 0 2.829-.407 2.829-3.795z" fill="#211915"/><circle fill="#211915" cx="85.765" cy="28.609" r="1.925"/><circle fill="#211915" cx="33.738" cy="28.66" r="1.925"/><path fill="#FFF" d="M-60.998-17.059h31.807v67.333h-31.807z"/></svg>